<svg xmlns="http://www.w3.org/2000/svg" width="63.59" height="63.781" viewBox="0 0 63.59 63.781">
  <defs>
    <style>
      .cls-1 {
        fill: #fff;
        fill-rule: evenodd;
      }
    </style>
  </defs>
  <path id="close.svg" class="cls-1" d="M1761.96,111.108l-28.16,28.436a2.022,2.022,0,0,0,0,2.86,1.974,1.974,0,0,0,1.41.592,2,2,0,0,0,1.42-.592l28.37-28.65,28.37,28.65a2,2,0,0,0,1.42.592,1.974,1.974,0,0,0,1.41-.592,2.022,2.022,0,0,0,0-2.86l-28.16-28.436,28.18-28.455a2.04,2.04,0,0,0,0-2.86,1.988,1.988,0,0,0-2.83,0L1765,108.462l-28.39-28.668a1.988,1.988,0,0,0-2.83,0,2.022,2.022,0,0,0,0,2.86Z" transform="translate(-1733.22 -79.219)"/>
</svg>
