<svg xmlns="http://www.w3.org/2000/svg" xmlns:xlink="http://www.w3.org/1999/xlink" viewBox="0 0 170 113"><defs><style>.cls-1{fill:none;}.cls-2{clip-path:url(#clip-path);}.cls-3{fill:#46b61c;}.cls-4{fill:#fce63f;}.cls-5{fill:#fff;}.cls-6{fill:#014eaa;}</style><clipPath id="clip-path"><path class="cls-1" d="M28,57A57,57,0,1,0,85,1,57,57,0,0,0,28,57"/></clipPath></defs><title>flag01</title><g id="レイヤー_2" data-name="レイヤー 2"><g id="レイヤー_1-2" data-name="レイヤー 1"><g class="cls-2"><rect class="cls-3" width="170" height="113.39"/><polygon class="cls-4" points="156 57 85 102 15 57 85 12 156 57"/><path class="cls-5" d="M55,50h0"/><path class="cls-6" d="M57,49a29,29,0,0,0,57,16A68,68,0,0,0,86,51a69,69,0,0,0-30-1m31-3c15,4,23,11,27,14a30,30,0,0,0,0-4A29,29,0,0,0,58,45a70,70,0,0,1,29,2"/><path class="cls-5" d="M87,47a70,70,0,0,0-29-2l-2,5a69,69,0,0,1,30,1,68,68,0,0,1,27,15V61c-4-4-12-10-27-14"/><path class="cls-3" d="M60,45H59a2,2,0,0,1,0-1h1m53,15h0m0,1h0m-3-3h-3a1,1,0,0,0,0,0h3a1,1,0,0,0,0,0h0m-3-2h0m-3-1h-2v3h3m-3-2H99v3h2a1,1,0,0,1,0,0h1m-1,0h0m-3-2h0m-3-1h0m0,1h0m-3-2H88v3h3m0,1h0m-3-2H85v3h3m0,1h0m-6,1H79V46h2m-5-1H75v0h0v0H73V45h1v0h1v3m-4,0H70V45h2m-3-1H66V45h2m-1,0H66v2h1m-3,1H62V45h3m-2-1h0m-3,1h0"/><path class="cls-5" d="M64,63h0ZM85,79h0Zm6-7h0Zm5,1h0Zm3-1h0Zm10-6h0ZM100,78h0Zm3-5h0ZM93,54h0ZM82,63h0ZM60,66h0Zm47,3h0Zm-2,2h0ZM94,75h0Zm6-1h0ZM69,69h0Zm20-6h0Zm-3-3h0ZM74,57h0Zm-4,9h0Zm14,0h0ZM66,61h0ZM94,46h0Zm11,19h0ZM61,50h0ZM85,69h0ZM73,71h0Z"/></g></g></g></svg>