<svg xmlns="http://www.w3.org/2000/svg" width="24.03" height="24" viewBox="0 0 24.03 24">
  <defs>
    <style>
      .cls-1 {
        fill: #fff;
        fill-rule: evenodd;
      }
    </style>
  </defs>
  <path id="ico_edit01.svg" class="cls-1" d="M1973.39,146.484a0.952,0.952,0,0,1-.69-0.294,1.031,1.031,0,0,1-.29-0.766l0.23-3.889a1.033,1.033,0,0,1,.28-0.65l11.36-11.59a1,1,0,0,1,.7-0.294,0.953,0.953,0,0,1,.69.295l3.59,3.656a1.038,1.038,0,0,1,0,1.418l-11.36,11.593a0.982,0.982,0,0,1-.64.292l-3.81.227c-0.02,0-.04,0-0.06,0m1.19-4.451-0.14,2.383,2.33-.139,10.4-10.615-2.19-2.241Zm11.96-6.174a0.511,0.511,0,0,1-.35-0.146l-3.22-3.291a0.511,0.511,0,0,1,0-.708,0.478,0.478,0,0,1,.69,0l3.23,3.289a0.513,0.513,0,0,1,0,.71,0.493,0.493,0,0,1-.35.146M1976,143.32a0.468,0.468,0,0,1-.34-0.147,0.512,0.512,0,0,1,0-.709l8.87-9.048a0.48,0.48,0,0,1,.69,0,0.512,0.512,0,0,1,0,.709l-8.87,9.048a0.474,0.474,0,0,1-.35.147M1973.41,146a0.506,0.506,0,0,1-.35-0.146,0.536,0.536,0,0,1-.14-0.384l0.11-1.887a0.5,0.5,0,0,1,.41-0.465,1.223,1.223,0,0,1,.17-0.032,1.973,1.973,0,0,1,.21-0.011,1.882,1.882,0,0,1,1.42.615,2.011,2.011,0,0,1,.48,1.534c-0.02.1-.03,0.171-0.05,0.242a0.544,0.544,0,0,1-.45.424l-1.78.109h-0.03m0.57-1.91-0.05.875,0.81-.05a0.968,0.968,0,0,0-.23-0.549,0.855,0.855,0,0,0-.53-0.276m10.36,8.9h-18.83V136.466l5.9-6.015h11.94a1,1,0,0,1,0,2h-11.13l-4.75,4.841v13.7h14.9V139.219a0.985,0.985,0,1,1,1.97,0V153Zm-12.04-15.615h-5.81a0.5,0.5,0,0,1,0-1h4.83v-4.927a0.49,0.49,0,1,1,.98,0v5.929Z" transform="translate(-1965.5 -129)"/>
</svg>
