<svg xmlns="http://www.w3.org/2000/svg" width="30" height="30" viewBox="0 0 30 30">
  <defs>
    <style>
      .cls-1 {
        fill: #fff;
        fill-rule: evenodd;
      }
    </style>
  </defs>
  <path id="ico_plus.svg" class="cls-1" d="M1547,577a15,15,0,1,1,15-15A15.018,15.018,0,0,1,1547,577Zm0-28.286A13.286,13.286,0,1,0,1560.29,562,13.3,13.3,0,0,0,1547,548.714Zm5.91,14.142h-11.82a0.857,0.857,0,1,1,0-1.714h11.82A0.857,0.857,0,1,1,1552.91,562.856ZM1547,568.77a0.861,0.861,0,0,1-.86-0.856V556.085a0.86,0.86,0,0,1,1.72,0v11.829A0.86,0.86,0,0,1,1547,568.77Z" transform="translate(-1532 -547)"/>
</svg>
