<svg xmlns="http://www.w3.org/2000/svg" width="23.97" height="23.969" viewBox="0 0 23.97 23.969">
  <defs>
    <style>
      .cls-1 {
        fill: #fff;
        fill-rule: evenodd;
      }
    </style>
  </defs>
  <path id="ico_edit02.svg" class="cls-1" d="M1968.91,339.8a1.016,1.016,0,0,1-.71-0.3,1,1,0,0,1-.29-0.771l0.26-4.427a1,1,0,0,1,.29-0.652l13.19-13.194a1.014,1.014,0,0,1,1.43,0l4.16,4.164a0.994,0.994,0,0,1,0,1.423l-13.19,13.2a1.026,1.026,0,0,1-.65.293l-4.43.26-0.06,0m1.25-4.992-0.18,2.915,2.92-.172,12.21-12.213-2.74-2.742Zm14.02-7.037a0.474,0.474,0,0,1-.35-0.147l-3.75-3.744a0.5,0.5,0,0,1,.71-0.712l3.75,3.744a0.5,0.5,0,0,1-.36.859m-14.57,7.922c-0.09,0-.17,0-0.26.011s-0.16.035-.24,0.048l-0.18,3.063,2.94-.178a1.9,1.9,0,0,0,.07-0.34,2.287,2.287,0,0,0-2.33-2.6m17.3,8.29h-21.97a1.007,1.007,0,0,1-1.01-1.007V321a1.006,1.006,0,0,1,1.01-1.006h10.9a1.006,1.006,0,1,1,0,2.012h-9.9v19.962h19.97v-9.9a1.005,1.005,0,1,1,2.01,0v10.9a1.007,1.007,0,0,1-1.01,1.007" transform="translate(-1963.94 -320)"/>
</svg>
