<svg xmlns="http://www.w3.org/2000/svg" viewBox="0 0 112 112"><defs><style>.cls-1{fill:#00b900;}.cls-2{fill:#fff;}</style></defs><title>line</title><g id="レイヤー_2" data-name="レイヤー 2"><g id="レイヤー_1-2" data-name="レイヤー 1"><g id="TYPE_A" data-name="TYPE A"><path class="cls-1" d="M91,0H20A20,20,0,0,0,0,20V91a20,20,0,0,0,20,20H91a20,20,0,0,0,20-20V20A20,20,0,0,0,91,0"/><path class="cls-2" d="M96,51c0-18-18-33-41-33S15,33,15,51,29,81,49,83l4,2a8,8,0,0,1,0,4v3c0,1-1,4,4,2S79,81,88,71h0c6-6,9-13,9-20"/><path class="cls-1" d="M47,42H44V61h4V43H47"/><path class="cls-1" d="M67,42H63V53L55,42H51V61h4V50l8,11h4V43H67"/><path class="cls-1" d="M40,57H33V43H28V61H41V58H40"/><path class="cls-1" d="M83,47h1V43H71V61H83V58H75V54h9V50H75V47Z"/></g></g></g></svg>